<svg width="83" height="97" viewBox="0 0 83 97" fill="none" xmlns="http://www.w3.org/2000/svg">
<path d="M77.2976 87.565L61.8483 45.4903L64.6397 43.6568L64.6397 43.6568L64.6466 43.6522L73.9954 37.2874L78.6698 34.105L81.007 32.5139L82.1755 31.7183C82.8188 31.2803 82.2851 30.2879 81.565 30.5833L59.6721 39.5637L46.841 4.6194C45.9324 2.1448 43.5763 0.5 40.9401 0.5H37.236C34.5998 0.5 32.2437 2.14479 31.335 4.61939L0.878466 87.565C-0.582381 91.5435 2.36229 95.7616 6.60049 95.7616C9.18084 95.7616 11.4816 94.1369 12.3449 91.7052L20.4019 69.0085C21.5622 69.0771 22.7697 68.8204 23.9007 68.167L51.7622 52.073L65.8312 91.7052C66.6944 94.1369 68.9952 95.7616 71.5756 95.7616C75.8138 95.7616 78.7584 91.5434 77.2976 87.565ZM81.6128 30.8916L81.6119 30.8922L81.6128 30.8916ZM48.8914 43.9859L25.943 53.3993L39.0678 16.4267C39.0709 16.4182 39.079 16.4125 39.088 16.4125C39.0971 16.4125 39.1052 16.4182 39.1082 16.4267L48.8914 43.9859Z" fill="url(#paint0_linear_4_9)" stroke="#082A28"/>
<defs>
<linearGradient id="paint0_linear_4_9" x1="41.48" y1="1" x2="41.48" y2="95.2616" gradientUnits="userSpaceOnUse">
<stop stop-color="#2FFECB"/>
</linearGradient>
</defs>
</svg>
