<svg width="302" height="96" viewBox="0 0 302 96" fill="none" xmlns="http://www.w3.org/2000/svg">
<path d="M77.2976 100.565L61.8483 58.4903L64.6397 56.6568L64.6397 56.6568L64.6466 56.6522L73.9954 50.2874L78.6698 47.105L81.007 45.5139L82.1755 44.7183C82.8188 44.2803 82.2851 43.2879 81.565 43.5833L59.6721 52.5637L46.841 17.6194C45.9324 15.1448 43.5763 13.5 40.9401 13.5H37.236C34.5998 13.5 32.2437 15.1448 31.335 17.6194L0.878466 100.565C-0.582381 104.543 2.36229 108.762 6.60049 108.762C9.18084 108.762 11.4816 107.137 12.3449 104.705L20.4019 82.0085C21.5622 82.0771 22.7697 81.8204 23.9007 81.167L51.7622 65.073L65.8312 104.705C66.6944 107.137 68.9952 108.762 71.5756 108.762C75.8138 108.762 78.7584 104.543 77.2976 100.565ZM81.6128 43.8916L81.6119 43.8922L81.6128 43.8916ZM48.8914 56.9859L25.943 66.3993L39.0678 29.4267C39.0709 29.4182 39.079 29.4125 39.088 29.4125C39.0971 29.4125 39.1052 29.4182 39.1082 29.4267L48.8914 56.9859Z" fill="url(#paint0_linear_4_5)" stroke="#082A28"/>
<path d="M110.406 133.182C105.872 133.182 101.974 132.598 98.7131 131.432C95.4517 130.292 92.7339 128.78 90.5597 126.898C88.4119 125.042 86.7017 123.053 85.429 120.932L92.9062 115.682C93.7547 116.795 94.8286 118.068 96.1278 119.5C97.4271 120.958 99.2036 122.218 101.457 123.278C103.738 124.366 106.721 124.909 110.406 124.909C115.338 124.909 119.408 123.716 122.616 121.33C125.825 118.943 127.429 115.205 127.429 110.114V97.7045H126.634C125.944 98.8182 124.963 100.197 123.69 101.841C122.444 103.458 120.641 104.903 118.281 106.176C115.948 107.422 112.793 108.045 108.815 108.045C103.884 108.045 99.4555 106.879 95.5312 104.545C91.6335 102.212 88.5445 98.8182 86.2642 94.3636C84.0104 89.9091 82.8835 84.5 82.8835 78.1364C82.8835 71.8788 83.9839 66.4299 86.1847 61.7898C88.3854 57.1231 91.4479 53.517 95.3722 50.9716C99.2964 48.3996 103.83 47.1136 108.974 47.1136C112.952 47.1136 116.107 47.7765 118.44 49.1023C120.8 50.4015 122.603 51.8864 123.849 53.5568C125.122 55.2008 126.103 56.553 126.793 57.6136H127.747V47.9091H136.815V110.75C136.815 116 135.622 120.269 133.236 123.557C130.876 126.871 127.694 129.297 123.69 130.835C119.713 132.4 115.285 133.182 110.406 133.182ZM110.088 99.6136C113.853 99.6136 117.035 98.7519 119.634 97.0284C122.232 95.3049 124.207 92.8258 125.56 89.5909C126.912 86.3561 127.588 82.4848 127.588 77.9773C127.588 73.5758 126.925 69.6913 125.599 66.3239C124.274 62.9564 122.312 60.3182 119.713 58.4091C117.115 56.5 113.906 55.5455 110.088 55.5455C106.111 55.5455 102.796 56.553 100.145 58.5682C97.5199 60.5833 95.5445 63.2879 94.2188 66.6818C92.9195 70.0758 92.2699 73.8409 92.2699 77.9773C92.2699 82.2197 92.9328 85.9716 94.2585 89.233C95.6108 92.4678 97.5994 95.0133 100.224 96.8693C102.876 98.6989 106.164 99.6136 110.088 99.6136ZM163.384 72.25V109H153.997V47.9091H163.065V57.4545H163.861C165.293 54.3523 167.467 51.8598 170.384 49.9773C173.3 48.0682 177.065 47.1136 181.679 47.1136C185.815 47.1136 189.435 47.9621 192.537 49.6591C195.639 51.3295 198.052 53.875 199.776 57.2955C201.499 60.6894 202.361 64.9848 202.361 70.1818V109H192.974V70.8182C192.974 66.0189 191.728 62.2803 189.236 59.6023C186.743 56.8977 183.323 55.5455 178.974 55.5455C175.978 55.5455 173.3 56.1951 170.94 57.4943C168.607 58.7936 166.764 60.6894 165.412 63.1818C164.06 65.6742 163.384 68.697 163.384 72.25ZM219.513 109V47.9091H228.899V109H219.513ZM224.286 37.7273C222.456 37.7273 220.878 37.1042 219.553 35.858C218.253 34.6117 217.604 33.1136 217.604 31.3636C217.604 29.6136 218.253 28.1155 219.553 26.8693C220.878 25.6231 222.456 25 224.286 25C226.115 25 227.679 25.6231 228.979 26.8693C230.304 28.1155 230.967 29.6136 230.967 31.3636C230.967 33.1136 230.304 34.6117 228.979 35.858C227.679 37.1042 226.115 37.7273 224.286 37.7273ZM296.045 47.9091L273.455 109H263.909L241.318 47.9091H251.5L268.364 96.5909H269L285.864 47.9091H296.045Z" fill="white"/>
<circle cx="224" cy="31" r="7" fill="#2FFECB"/>
<defs>
<linearGradient id="paint0_linear_4_5" x1="41.48" y1="14" x2="41.48" y2="108.262" gradientUnits="userSpaceOnUse">
<stop stop-color="#2FFECB"/>
</linearGradient>
</defs>
</svg>
