<svg width="1418" height="1009" viewBox="0 0 1418 1009" fill="none" xmlns="http://www.w3.org/2000/svg">
<path d="M6.65674 5.94434V84.9041H85.6165V5.94434H6.65674Z" fill="black" stroke="black" stroke-width="13.0559"/>
<path d="M108.712 5.95103V84.9108H187.672V5.95103H108.712Z" fill="black" stroke="black" stroke-width="13.0559"/>
<path d="M6.65674 108.01V186.969H85.6165V108.01H6.65674Z" fill="black" stroke="black" stroke-width="13.0559"/>
<path d="M108.709 108V186.96H187.669V108H108.709Z" fill="black" stroke="black" stroke-width="13.0559"/>
<g clip-path="url(#clip0_49_801)">
<path d="M211.303 6.29792L211.446 85.1146L290.263 85.2577L290.12 6.44097L211.303 6.29792Z" fill="black" stroke="black" stroke-width="13.0559"/>
<path d="M313.174 6.48946L313.317 85.3062L392.134 85.4492L391.991 6.6325L313.174 6.48946Z" fill="black" stroke="black" stroke-width="13.0559"/>
<path d="M211.488 108.178L211.631 186.995L290.448 187.138L290.305 108.321L211.488 108.178Z" fill="black" stroke="black" stroke-width="13.0559"/>
<path d="M313.355 108.354L313.499 187.171L392.315 187.314L392.172 108.497L313.355 108.354Z" fill="black" stroke="black" stroke-width="13.0559"/>
</g>
<path d="M414.657 5.94434V84.9041H493.616V5.94434H414.657Z" fill="black" stroke="black" stroke-width="13.0559"/>
<path d="M516.712 5.95103V84.9108H595.672V5.95103H516.712Z" fill="black" stroke="black" stroke-width="13.0559"/>
<path d="M414.657 108.01V186.969H493.616V108.01H414.657Z" fill="black" stroke="black" stroke-width="13.0559"/>
<path d="M516.709 108V186.96H595.669V108H516.709Z" fill="black" stroke="black" stroke-width="13.0559"/>
<g clip-path="url(#clip1_49_801)">
<path d="M619.303 6.29792L619.446 85.1146L698.263 85.2577L698.12 6.44097L619.303 6.29792Z" fill="black" stroke="black" stroke-width="13.0559"/>
<path d="M721.174 6.48946L721.317 85.3062L800.134 85.4492L799.991 6.6325L721.174 6.48946Z" fill="black" stroke="black" stroke-width="13.0559"/>
<path d="M619.488 108.178L619.631 186.995L698.448 187.138L698.305 108.321L619.488 108.178Z" fill="black" stroke="black" stroke-width="13.0559"/>
<path d="M721.355 108.354L721.499 187.171L800.315 187.314L800.172 108.497L721.355 108.354Z" fill="black" stroke="black" stroke-width="13.0559"/>
</g>
<path d="M822.657 5.94434V84.9041H901.616V5.94434H822.657Z" fill="black" stroke="black" stroke-width="13.0559"/>
<path d="M924.712 5.95103V84.9108H1003.67V5.95103H924.712Z" fill="black" stroke="black" stroke-width="13.0559"/>
<path d="M822.657 108.01V186.969H901.616V108.01H822.657Z" fill="black" stroke="black" stroke-width="13.0559"/>
<path d="M924.709 108V186.96H1003.67V108H924.709Z" fill="black" stroke="black" stroke-width="13.0559"/>
<g clip-path="url(#clip2_49_801)">
<path d="M1027.3 6.29792L1027.45 85.1146L1106.26 85.2577L1106.12 6.44097L1027.3 6.29792Z" fill="black" stroke="black" stroke-width="13.0559"/>
<path d="M1129.17 6.48946L1129.32 85.3062L1208.13 85.4492L1207.99 6.6325L1129.17 6.48946Z" fill="black" stroke="black" stroke-width="13.0559"/>
<path d="M1027.49 108.178L1027.63 186.995L1106.45 187.138L1106.31 108.321L1027.49 108.178Z" fill="black" stroke="black" stroke-width="13.0559"/>
<path d="M1129.36 108.354L1129.5 187.171L1208.32 187.314L1208.17 108.497L1129.36 108.354Z" fill="black" stroke="black" stroke-width="13.0559"/>
</g>
<path d="M1230.66 5.94434V84.9041H1309.62V5.94434H1230.66Z" fill="black" stroke="black" stroke-width="13.0559"/>
<path d="M1332.71 5.95103V84.9108H1411.67V5.95103H1332.71Z" fill="black" stroke="black" stroke-width="13.0559"/>
<path d="M1230.66 108.01V186.969H1309.62V108.01H1230.66Z" fill="black" stroke="black" stroke-width="13.0559"/>
<path d="M1332.71 108V186.96H1411.67V108H1332.71Z" fill="black" stroke="black" stroke-width="13.0559"/>
<path d="M6.65674 209.944V288.904H85.6165V209.944H6.65674Z" fill="black" stroke="black" stroke-width="13.0559"/>
<path d="M108.712 209.951V288.911H187.672V209.951H108.712Z" fill="black" stroke="black" stroke-width="13.0559"/>
<path d="M6.65674 312.01V390.969H85.6165V312.01H6.65674Z" fill="black" stroke="black" stroke-width="13.0559"/>
<path d="M108.709 312V390.96H187.669V312H108.709Z" fill="black" stroke="black" stroke-width="13.0559"/>
<g clip-path="url(#clip3_49_801)">
<path d="M211.303 210.298L211.446 289.115L290.263 289.258L290.12 210.441L211.303 210.298Z" fill="black" stroke="black" stroke-width="13.0559"/>
<path d="M313.174 210.489L313.317 289.306L392.134 289.449L391.991 210.633L313.174 210.489Z" fill="black" stroke="black" stroke-width="13.0559"/>
<path d="M211.488 312.178L211.631 390.995L290.448 391.138L290.305 312.321L211.488 312.178Z" fill="black" stroke="black" stroke-width="13.0559"/>
<path d="M313.355 312.354L313.499 391.171L392.315 391.314L392.172 312.497L313.355 312.354Z" fill="black" stroke="black" stroke-width="13.0559"/>
</g>
<path d="M414.657 209.944V288.904H493.616V209.944H414.657Z" fill="black" stroke="black" stroke-width="13.0559"/>
<path d="M516.712 209.951V288.911H595.672V209.951H516.712Z" fill="black" stroke="black" stroke-width="13.0559"/>
<path d="M414.657 312.01V390.969H493.616V312.01H414.657Z" fill="black" stroke="black" stroke-width="13.0559"/>
<path d="M516.709 312V390.96H595.669V312H516.709Z" fill="black" stroke="black" stroke-width="13.0559"/>
<g clip-path="url(#clip4_49_801)">
<path d="M619.303 210.298L619.446 289.115L698.263 289.258L698.12 210.441L619.303 210.298Z" fill="black" stroke="black" stroke-width="13.0559"/>
<path d="M721.174 210.489L721.317 289.306L800.134 289.449L799.991 210.633L721.174 210.489Z" fill="black" stroke="black" stroke-width="13.0559"/>
<path d="M619.488 312.178L619.631 390.995L698.448 391.138L698.305 312.321L619.488 312.178Z" fill="black" stroke="black" stroke-width="13.0559"/>
<path d="M721.355 312.354L721.499 391.171L800.315 391.314L800.172 312.497L721.355 312.354Z" fill="black" stroke="black" stroke-width="13.0559"/>
</g>
<path d="M822.657 209.944V288.904H901.616V209.944H822.657Z" fill="black" stroke="black" stroke-width="13.0559"/>
<path d="M924.712 209.951V288.911H1003.67V209.951H924.712Z" fill="black" stroke="black" stroke-width="13.0559"/>
<path d="M822.657 312.01V390.969H901.616V312.01H822.657Z" fill="black" stroke="black" stroke-width="13.0559"/>
<path d="M924.709 312V390.96H1003.67V312H924.709Z" fill="black" stroke="black" stroke-width="13.0559"/>
<g clip-path="url(#clip5_49_801)">
<path d="M1027.3 210.298L1027.45 289.115L1106.26 289.258L1106.12 210.441L1027.3 210.298Z" fill="black" stroke="black" stroke-width="13.0559"/>
<path d="M1129.17 210.489L1129.32 289.306L1208.13 289.449L1207.99 210.633L1129.17 210.489Z" fill="black" stroke="black" stroke-width="13.0559"/>
<path d="M1027.49 312.178L1027.63 390.995L1106.45 391.138L1106.31 312.321L1027.49 312.178Z" fill="black" stroke="black" stroke-width="13.0559"/>
<path d="M1129.36 312.354L1129.5 391.171L1208.32 391.314L1208.17 312.497L1129.36 312.354Z" fill="black" stroke="black" stroke-width="13.0559"/>
</g>
<path d="M1230.66 209.944V288.904H1309.62V209.944H1230.66Z" fill="black" stroke="black" stroke-width="13.0559"/>
<path d="M1332.71 209.951V288.911H1411.67V209.951H1332.71Z" fill="black" stroke="black" stroke-width="13.0559"/>
<path d="M1230.66 312.01V390.969H1309.62V312.01H1230.66Z" fill="black" stroke="black" stroke-width="13.0559"/>
<path d="M1332.71 312V390.96H1411.67V312H1332.71Z" fill="black" stroke="black" stroke-width="13.0559"/>
<path d="M6.65674 822.944V901.904H85.6165V822.944H6.65674Z" fill="black" stroke="black" stroke-width="13.0559"/>
<path d="M108.712 822.951V901.911H187.672V822.951H108.712Z" fill="black" stroke="black" stroke-width="13.0559"/>
<path d="M6.65674 925.01V1003.97H85.6165V925.01H6.65674Z" fill="black" stroke="black" stroke-width="13.0559"/>
<path d="M108.709 925V1003.96H187.669V925H108.709Z" fill="black" stroke="black" stroke-width="13.0559"/>
<g clip-path="url(#clip6_49_801)">
<path d="M211.303 823.298L211.446 902.115L290.263 902.258L290.12 823.441L211.303 823.298Z" fill="black" stroke="black" stroke-width="13.0559"/>
<path d="M313.174 823.489L313.317 902.306L392.134 902.449L391.991 823.633L313.174 823.489Z" fill="black" stroke="black" stroke-width="13.0559"/>
<path d="M211.488 925.178L211.631 1003.99L290.448 1004.14L290.305 925.321L211.488 925.178Z" fill="black" stroke="black" stroke-width="13.0559"/>
<path d="M313.355 925.354L313.499 1004.17L392.315 1004.31L392.172 925.497L313.355 925.354Z" fill="black" stroke="black" stroke-width="13.0559"/>
</g>
<path d="M414.657 822.944V901.904H493.616V822.944H414.657Z" fill="black" stroke="black" stroke-width="13.0559"/>
<path d="M516.712 822.951V901.911H595.672V822.951H516.712Z" fill="black" stroke="black" stroke-width="13.0559"/>
<path d="M414.657 925.01V1003.97H493.616V925.01H414.657Z" fill="black" stroke="black" stroke-width="13.0559"/>
<path d="M516.709 925V1003.96H595.669V925H516.709Z" fill="black" stroke="black" stroke-width="13.0559"/>
<g clip-path="url(#clip7_49_801)">
<path d="M619.303 823.298L619.446 902.115L698.263 902.258L698.12 823.441L619.303 823.298Z" fill="black" stroke="black" stroke-width="13.0559"/>
<path d="M721.174 823.489L721.317 902.306L800.134 902.449L799.991 823.633L721.174 823.489Z" fill="black" stroke="black" stroke-width="13.0559"/>
<path d="M619.488 925.178L619.631 1003.99L698.448 1004.14L698.305 925.321L619.488 925.178Z" fill="black" stroke="black" stroke-width="13.0559"/>
<path d="M721.355 925.354L721.499 1004.17L800.315 1004.31L800.172 925.497L721.355 925.354Z" fill="black" stroke="black" stroke-width="13.0559"/>
</g>
<path d="M822.657 822.944V901.904H901.616V822.944H822.657Z" fill="black" stroke="black" stroke-width="13.0559"/>
<path d="M924.712 822.951V901.911H1003.67V822.951H924.712Z" fill="black" stroke="black" stroke-width="13.0559"/>
<path d="M822.657 925.01V1003.97H901.616V925.01H822.657Z" fill="black" stroke="black" stroke-width="13.0559"/>
<path d="M924.709 925V1003.96H1003.67V925H924.709Z" fill="black" stroke="black" stroke-width="13.0559"/>
<g clip-path="url(#clip8_49_801)">
<path d="M1027.3 823.298L1027.45 902.115L1106.26 902.258L1106.12 823.441L1027.3 823.298Z" fill="black" stroke="black" stroke-width="13.0559"/>
<path d="M1129.17 823.489L1129.32 902.306L1208.13 902.449L1207.99 823.633L1129.17 823.489Z" fill="black" stroke="black" stroke-width="13.0559"/>
<path d="M1027.49 925.178L1027.63 1003.99L1106.45 1004.14L1106.31 925.321L1027.49 925.178Z" fill="black" stroke="black" stroke-width="13.0559"/>
<path d="M1129.36 925.354L1129.5 1004.17L1208.32 1004.31L1208.17 925.497L1129.36 925.354Z" fill="black" stroke="black" stroke-width="13.0559"/>
</g>
<path d="M1230.66 822.944V901.904H1309.62V822.944H1230.66Z" fill="black" stroke="black" stroke-width="13.0559"/>
<path d="M1332.71 822.951V901.911H1411.67V822.951H1332.71Z" fill="black" stroke="black" stroke-width="13.0559"/>
<path d="M1230.66 925.01V1003.97H1309.62V925.01H1230.66Z" fill="black" stroke="black" stroke-width="13.0559"/>
<path d="M1332.71 925V1003.96H1411.67V925H1332.71Z" fill="black" stroke="black" stroke-width="13.0559"/>
<path d="M6.65674 413.944V492.904H85.6165V413.944H6.65674Z" fill="black" stroke="black" stroke-width="13.0559"/>
<path d="M108.712 413.951V492.911H187.672V413.951H108.712Z" fill="black" stroke="black" stroke-width="13.0559"/>
<path d="M6.65674 516.01V594.969H85.6165V516.01H6.65674Z" fill="black" stroke="black" stroke-width="13.0559"/>
<path d="M108.709 516V594.96H187.669V516H108.709Z" fill="black" stroke="black" stroke-width="13.0559"/>
<g clip-path="url(#clip9_49_801)">
<path d="M211.303 414.298L211.446 493.115L290.263 493.258L290.12 414.441L211.303 414.298Z" fill="black" stroke="black" stroke-width="13.0559"/>
<path d="M313.174 414.489L313.317 493.306L392.134 493.449L391.991 414.632L313.174 414.489Z" fill="black" stroke="black" stroke-width="13.0559"/>
<path d="M211.488 516.178L211.631 594.995L290.448 595.138L290.305 516.321L211.488 516.178Z" fill="black" stroke="black" stroke-width="13.0559"/>
<path d="M313.355 516.354L313.499 595.171L392.315 595.314L392.172 516.497L313.355 516.354Z" fill="black" stroke="black" stroke-width="13.0559"/>
</g>
<path d="M414.657 413.944V492.904H493.616V413.944H414.657Z" fill="black" stroke="black" stroke-width="13.0559"/>
<path d="M516.712 413.951V492.911H595.672V413.951H516.712Z" fill="black" stroke="black" stroke-width="13.0559"/>
<path d="M414.657 516.01V594.969H493.616V516.01H414.657Z" fill="black" stroke="black" stroke-width="13.0559"/>
<path d="M516.709 516V594.96H595.669V516H516.709Z" fill="black" stroke="black" stroke-width="13.0559"/>
<g clip-path="url(#clip10_49_801)">
<path d="M619.303 414.298L619.446 493.115L698.263 493.258L698.12 414.441L619.303 414.298Z" fill="black" stroke="black" stroke-width="13.0559"/>
<path d="M721.174 414.489L721.317 493.306L800.134 493.449L799.991 414.632L721.174 414.489Z" fill="black" stroke="black" stroke-width="13.0559"/>
<path d="M619.488 516.178L619.631 594.995L698.448 595.138L698.305 516.321L619.488 516.178Z" fill="black" stroke="black" stroke-width="13.0559"/>
<path d="M721.355 516.354L721.499 595.171L800.315 595.314L800.172 516.497L721.355 516.354Z" fill="black" stroke="black" stroke-width="13.0559"/>
</g>
<path d="M822.657 413.944V492.904H901.616V413.944H822.657Z" fill="black" stroke="black" stroke-width="13.0559"/>
<path d="M924.712 413.951V492.911H1003.67V413.951H924.712Z" fill="black" stroke="black" stroke-width="13.0559"/>
<path d="M822.657 516.01V594.969H901.616V516.01H822.657Z" fill="black" stroke="black" stroke-width="13.0559"/>
<path d="M924.709 516V594.96H1003.67V516H924.709Z" fill="black" stroke="black" stroke-width="13.0559"/>
<g clip-path="url(#clip11_49_801)">
<path d="M1027.3 414.298L1027.45 493.115L1106.26 493.258L1106.12 414.441L1027.3 414.298Z" fill="black" stroke="black" stroke-width="13.0559"/>
<path d="M1129.17 414.489L1129.32 493.306L1208.13 493.449L1207.99 414.632L1129.17 414.489Z" fill="black" stroke="black" stroke-width="13.0559"/>
<path d="M1027.49 516.178L1027.63 594.995L1106.45 595.138L1106.31 516.321L1027.49 516.178Z" fill="black" stroke="black" stroke-width="13.0559"/>
<path d="M1129.36 516.354L1129.5 595.171L1208.32 595.314L1208.17 516.497L1129.36 516.354Z" fill="black" stroke="black" stroke-width="13.0559"/>
</g>
<path d="M1230.66 413.944V492.904H1309.62V413.944H1230.66Z" fill="black" stroke="black" stroke-width="13.0559"/>
<path d="M1332.71 413.951V492.911H1411.67V413.951H1332.71Z" fill="black" stroke="black" stroke-width="13.0559"/>
<path d="M1230.66 516.01V594.969H1309.62V516.01H1230.66Z" fill="black" stroke="black" stroke-width="13.0559"/>
<path d="M1332.71 516V594.96H1411.67V516H1332.71Z" fill="black" stroke="black" stroke-width="13.0559"/>
<path d="M6.65674 617.944V696.904H85.6165V617.944H6.65674Z" fill="black" stroke="black" stroke-width="13.0559"/>
<path d="M108.712 617.951V696.911H187.672V617.951H108.712Z" fill="black" stroke="black" stroke-width="13.0559"/>
<path d="M6.65674 720.009V798.969H85.6165V720.009H6.65674Z" fill="black" stroke="black" stroke-width="13.0559"/>
<path d="M108.709 720V798.96H187.669V720H108.709Z" fill="black" stroke="black" stroke-width="13.0559"/>
<g clip-path="url(#clip12_49_801)">
<path d="M211.303 618.298L211.446 697.115L290.263 697.258L290.12 618.441L211.303 618.298Z" fill="black" stroke="black" stroke-width="13.0559"/>
<path d="M313.174 618.489L313.317 697.306L392.134 697.449L391.991 618.632L313.174 618.489Z" fill="black" stroke="black" stroke-width="13.0559"/>
<path d="M211.488 720.178L211.631 798.995L290.448 799.138L290.305 720.321L211.488 720.178Z" fill="black" stroke="black" stroke-width="13.0559"/>
<path d="M313.355 720.354L313.499 799.171L392.315 799.314L392.172 720.497L313.355 720.354Z" fill="black" stroke="black" stroke-width="13.0559"/>
</g>
<path d="M414.657 617.944V696.904H493.616V617.944H414.657Z" fill="black" stroke="black" stroke-width="13.0559"/>
<path d="M516.712 617.951V696.911H595.672V617.951H516.712Z" fill="black" stroke="black" stroke-width="13.0559"/>
<path d="M414.657 720.009V798.969H493.616V720.009H414.657Z" fill="black" stroke="black" stroke-width="13.0559"/>
<path d="M516.709 720V798.96H595.669V720H516.709Z" fill="black" stroke="black" stroke-width="13.0559"/>
<g clip-path="url(#clip13_49_801)">
<path d="M619.303 618.298L619.446 697.115L698.263 697.258L698.12 618.441L619.303 618.298Z" fill="black" stroke="black" stroke-width="13.0559"/>
<path d="M721.174 618.489L721.317 697.306L800.134 697.449L799.991 618.632L721.174 618.489Z" fill="black" stroke="black" stroke-width="13.0559"/>
<path d="M619.488 720.178L619.631 798.995L698.448 799.138L698.305 720.321L619.488 720.178Z" fill="black" stroke="black" stroke-width="13.0559"/>
<path d="M721.355 720.354L721.499 799.171L800.315 799.314L800.172 720.497L721.355 720.354Z" fill="black" stroke="black" stroke-width="13.0559"/>
</g>
<path d="M822.657 617.944V696.904H901.616V617.944H822.657Z" fill="black" stroke="black" stroke-width="13.0559"/>
<path d="M924.712 617.951V696.911H1003.67V617.951H924.712Z" fill="black" stroke="black" stroke-width="13.0559"/>
<path d="M822.657 720.009V798.969H901.616V720.009H822.657Z" fill="black" stroke="black" stroke-width="13.0559"/>
<path d="M924.709 720V798.96H1003.67V720H924.709Z" fill="black" stroke="black" stroke-width="13.0559"/>
<g clip-path="url(#clip14_49_801)">
<path d="M1027.3 618.298L1027.45 697.115L1106.26 697.258L1106.12 618.441L1027.3 618.298Z" fill="black" stroke="black" stroke-width="13.0559"/>
<path d="M1129.17 618.489L1129.32 697.306L1208.13 697.449L1207.99 618.632L1129.17 618.489Z" fill="black" stroke="black" stroke-width="13.0559"/>
<path d="M1027.49 720.178L1027.63 798.995L1106.45 799.138L1106.31 720.321L1027.49 720.178Z" fill="black" stroke="black" stroke-width="13.0559"/>
<path d="M1129.36 720.354L1129.5 799.171L1208.32 799.314L1208.17 720.497L1129.36 720.354Z" fill="black" stroke="black" stroke-width="13.0559"/>
</g>
<path d="M1230.66 617.944V696.904H1309.62V617.944H1230.66Z" fill="black" stroke="black" stroke-width="13.0559"/>
<path d="M1332.71 617.951V696.911H1411.67V617.951H1332.71Z" fill="black" stroke="black" stroke-width="13.0559"/>
<path d="M1230.66 720.009V798.969H1309.62V720.009H1230.66Z" fill="black" stroke="black" stroke-width="13.0559"/>
<path d="M1332.71 720V798.96H1411.67V720H1332.71Z" fill="black" stroke="black" stroke-width="13.0559"/>
<defs>
<clipPath id="clip0_49_801">
<rect width="275" height="276" fill="white" transform="translate(107 96.4543) rotate(-45)"/>
</clipPath>
<clipPath id="clip1_49_801">
<rect width="275" height="276" fill="white" transform="translate(515 96.4543) rotate(-45)"/>
</clipPath>
<clipPath id="clip2_49_801">
<rect width="275" height="276" fill="white" transform="translate(923 96.4543) rotate(-45)"/>
</clipPath>
<clipPath id="clip3_49_801">
<rect width="275" height="276" fill="white" transform="translate(107 300.454) rotate(-45)"/>
</clipPath>
<clipPath id="clip4_49_801">
<rect width="275" height="276" fill="white" transform="translate(515 300.454) rotate(-45)"/>
</clipPath>
<clipPath id="clip5_49_801">
<rect width="275" height="276" fill="white" transform="translate(923 300.454) rotate(-45)"/>
</clipPath>
<clipPath id="clip6_49_801">
<rect width="275" height="276" fill="white" transform="translate(107 913.454) rotate(-45)"/>
</clipPath>
<clipPath id="clip7_49_801">
<rect width="275" height="276" fill="white" transform="translate(515 913.454) rotate(-45)"/>
</clipPath>
<clipPath id="clip8_49_801">
<rect width="275" height="276" fill="white" transform="translate(923 913.454) rotate(-45)"/>
</clipPath>
<clipPath id="clip9_49_801">
<rect width="275" height="276" fill="white" transform="translate(107 504.454) rotate(-45)"/>
</clipPath>
<clipPath id="clip10_49_801">
<rect width="275" height="276" fill="white" transform="translate(515 504.454) rotate(-45)"/>
</clipPath>
<clipPath id="clip11_49_801">
<rect width="275" height="276" fill="white" transform="translate(923 504.454) rotate(-45)"/>
</clipPath>
<clipPath id="clip12_49_801">
<rect width="275" height="276" fill="white" transform="translate(107 708.454) rotate(-45)"/>
</clipPath>
<clipPath id="clip13_49_801">
<rect width="275" height="276" fill="white" transform="translate(515 708.454) rotate(-45)"/>
</clipPath>
<clipPath id="clip14_49_801">
<rect width="275" height="276" fill="white" transform="translate(923 708.454) rotate(-45)"/>
</clipPath>
</defs>
</svg>
